HIERARCHY
ROOT Hips
{
 OFFSET 0.000000 0.000000 0.000000
 CHANNELS 6 Xposition Yposition Zposition Yrotation Xrotation Zrotation
 JOINT Chest
 {
  OFFSET 0.000000 9.585900 0.002600
  CHANNELS 3 Yrotation Xrotation Zrotation
  JOINT Chest2
  {
   OFFSET 0.000000 9.601200 -0.005300
   CHANNELS 3 Yrotation Xrotation Zrotation
   JOINT Chest3
   {
    OFFSET 0.000000 9.561800 0.000000
    CHANNELS 3 Yrotation Xrotation Zrotation
    JOINT Chest4
    {
     OFFSET 0.000000 9.552100 0.000000
     CHANNELS 3 Yrotation Xrotation Zrotation
     JOINT Neck
     {
      OFFSET 0.000000 14.453000 0.000000
      CHANNELS 3 Yrotation Xrotation Zrotation
      JOINT Head
      {
       OFFSET 0.000000 8.936500 -0.011300
       CHANNELS 3 Yrotation Xrotation Zrotation
       End Site
       {
        OFFSET 0.000000 17.073600 -0.006000
       }
      }
     }
     JOINT RightCollar
     {
      OFFSET -2.921100 9.558500 0.000000
      CHANNELS 3 Yrotation Xrotation Zrotation
      JOINT RightShoulder
      {
       OFFSET -13.519700 0.000000 0.000000
       CHANNELS 3 Yrotation Xrotation Zrotation
       JOINT RightElbow
       {
        OFFSET 0.000000 -29.696600 0.000000
        CHANNELS 3 Yrotation Xrotation Zrotation
        JOINT RightWrist
        {
         OFFSET 0.000000 -24.004700 0.000000
         CHANNELS 3 Yrotation Xrotation Zrotation
         End Site
         {
          OFFSET 0.000000 -17.728500 0.000000
         }
        }
       }
      }
     }
     JOINT LeftCollar
     {
      OFFSET 2.921100 9.558500 0.000000
      CHANNELS 3 Yrotation Xrotation Zrotation
      JOINT LeftShoulder
      {
       OFFSET 13.519700 0.000000 0.000000
       CHANNELS 3 Yrotation Xrotation Zrotation
       JOINT LeftElbow
       {
        OFFSET 0.000000 -29.696600 0.000000
        CHANNELS 3 Yrotation Xrotation Zrotation
        JOINT LeftWrist
        {
         OFFSET 0.000000 -24.004700 0.000000
         CHANNELS 3 Yrotation Xrotation Zrotation
         End Site
         {
          OFFSET 0.000000 -17.728500 0.000000
         }
        }
       }
      }
     }
    }
   }
  }
 }
 JOINT RightHip
 {
  OFFSET -7.771700 -0.012900 -0.001300
  CHANNELS 3 Yrotation Xrotation Zrotation
  JOINT RightKnee
  {
   OFFSET 0.000000 -40.869800 0.001200
   CHANNELS 3 Yrotation Xrotation Zrotation
   JOINT RightAnkle
   {
    OFFSET 0.000000 -39.717900 0.002100
    CHANNELS 3 Yrotation Xrotation Zrotation
    JOINT RightToe
    {
     OFFSET 0.000000 -4.965400 11.033500
     CHANNELS 3 Yrotation Xrotation Zrotation
     End Site
     {
      OFFSET 0.000000 -1.423100 5.872300
     }
    }
   }
  }
 }
 JOINT LeftHip
 {
  OFFSET 7.771700 -0.012900 -0.001300
  CHANNELS 3 Yrotation Xrotation Zrotation
  JOINT LeftKnee
  {
   OFFSET 0.000000 -40.869800 0.001200
   CHANNELS 3 Yrotation Xrotation Zrotation
   JOINT LeftAnkle
   {
    OFFSET 0.000000 -39.717900 0.002100
    CHANNELS 3 Yrotation Xrotation Zrotation
    JOINT LeftToe
    {
     OFFSET 0.000000 -4.965400 11.033500
     CHANNELS 3 Yrotation Xrotation Zrotation
     End Site
     {
      OFFSET 0.000000 -1.423100 5.872300
     }
    }
   }
  }
 }
}
MOTION
Frames: 16
Frame Time: 0.008333
0.000000 85.388000 0.000000 0.000000 -5.767877 0.000000 0.000000 11.653817 0.000000 0.000000 -5.885947 0.000000 0.000000 -0.000000 0.000000 0.000000 -0.000000 0.000000 0.000000 12.528835 0.000000 0.000000 0.711642 0.000000 0.000000 -0.000000 0.000000 0.000000 0.000000 -90.000000 0.000000 -2.309062 0.000000 0.000000 2.309062 0.000000 0.000000 -0.000000 0.000000 0.000000 -0.000000 90.000000 0.000000 -2.309062 0.000000 0.000000 2.309062 0.000000 0.000000 8.520406 0.000000 0.000000 1.905762 0.000000 -0.000000 -4.658285 0.000000 0.000000 -0.000000 0.000000 0.000000 8.520406 0.000000 0.000000 1.905762 0.000000 -0.000000 -4.658285 0.000000 0.000000 -0.000000 0.000000
1.606565 52.216617 36.022664 171.606268 -37.976251 -2.117046 4.409927 21.351864 1.653512 0.556585 2.890049 0.322873 0.904636 4.680474 0.527108 3.793445 17.936879 2.474149 -1.174964 14.776952 1.284420 -2.748977 -8.413487 2.815691 -3.926750 -0.408767 -1.478757 -13.466769 -5.546000 2.751619 -93.235806 -34.589132 114.230968 -1.384029 8.438177 51.515636 -5.064722 1.240810 -0.048933 11.471655 -7.360891 1.310626 70.712128 -18.630206 -118.488129 25.300727 -4.855423 -19.412255 -5.947376 -42.838417 3.158443 -169.484219 85.625501 -165.661256 -2.220330 -12.825460 -3.033631 0.072349 -0.219247 0.021683 -1.581359 -39.638781 6.069596 71.549293 83.240032 61.145537 -4.885883 -12.824394 9.344827 0.325569 1.746268 0.192586
1.611913 52.216086 36.015987 171.572152 -38.001843 -2.120247 4.453238 21.388586 1.690513 0.567398 2.905847 0.335097 0.902878 4.681020 0.524881 3.849329 18.010490 2.533406 -1.119760 14.801173 1.256064 -2.569380 -8.268173 2.773703 -3.965320 -0.433943 -1.494699 -13.414760 -5.628684 2.674080 -93.118190 -34.512914 113.953374 -2.080745 8.138941 50.151949 -5.117260 1.162581 -0.079445 11.476116 -7.367313 1.322638 70.725718 -18.444195 -118.227604 25.782315 -5.924698 -17.697381 -5.947089 -42.809748 3.190969 -169.577176 85.623786 -165.747622 -2.215456 -12.830331 -3.044909 0.066316 -0.219607 0.019930 -1.568816 -39.620088 6.097196 71.749624 83.258437 61.339776 -4.842331 -12.832538 9.357038 0.295114 1.722060 0.167195
1.613178 52.212815 36.011243 171.563648 -38.007364 -2.119373 4.478429 21.418354 1.718985 0.569044 2.905206 0.338308 0.889871 4.666504 0.510412 3.885359 18.042610 2.569698 -1.027573 14.879855 1.253053 -2.393004 -8.125290 2.730987 -3.979969 -0.416939 -1.499622 -13.397458 -5.686792 2.634386 -92.971234 -34.485978 113.680357 -2.782237 7.802525 48.747487 -5.081684 1.221267 -0.048143 11.421818 -7.446846 1.260129 70.733539 -18.252443 -117.933174 26.197780 -7.006563 -15.987593 -5.955485 -42.805659 3.202236 -169.686937 85.616008 -165.857931 -2.211326 -12.840058 -3.052534 0.065178 -0.218368 0.020591 -1.563268 -39.618980 6.100815 71.843812 83.271495 61.428973 -4.828615 -12.841689 9.365033 0.280683 1.715255 0.153684
1.612316 52.208368 36.007399 171.553718 -38.007145 -2.108993 4.510710 21.447559 1.755294 0.561235 2.895726 0.327137 0.892794 4.678600 0.515400 3.897202 18.047320 2.585289 -0.937278 14.955586 1.248519 -2.220077 -7.987798 2.686448 -4.005591 -0.425831 -1.516098 -13.366552 -5.708586 2.599022 -92.831701 -34.469748 113.412390 -3.474656 7.426055 47.309313 -5.062283 1.252662 -0.032745 11.384078 -7.494970 1.215017 70.728826 -18.041260 -117.620797 26.522988 -8.100166 -14.304827 -5.968862 -42.810857 3.205610 -169.783952 85.604535 -165.960274 -2.202469 -12.848648 -3.065962 0.066118 -0.218056 0.022045 -1.539194 -39.626079 6.081983 71.942140 83.277101 61.529585 -4.807842 -12.846873 9.369652 0.262152 1.707413 0.149769
1.615039 52.205793 36.002315 171.534595 -38.027362 -2.115936 4.554589 21.483508 1.806147 0.558593 2.896543 0.325043 0.898797 4.685141 0.521309 3.902569 18.056385 2.598740 -0.849072 15.025456 1.242360 -2.050817 -7.861049 2.640117 -4.019736 -0.394158 -1.516700 -13.259478 -5.729248 2.521625 -92.811055 -34.430444 113.199556 -4.156518 7.004250 45.842272 -5.049263 1.265669 -0.026935 11.392862 -7.471794 1.201489 70.706236 -17.814446 -117.350626 26.749487 -9.178745 -12.678848 -5.977953 -42.789489 3.231513 -169.846529 85.600323 -166.015743 -2.198948 -12.853338 -3.080540 0.068500 -0.219592 0.023991 -1.518718 -39.615936 6.087236 72.045807 83.281235 61.640487 -4.758075 -12.824906 9.385550 0.216103 1.670612 0.128697
1.613240 52.200597 36.000643 171.537427 -38.023276 -2.114360 4.566414 21.494003 1.824632 0.556221 2.895820 0.323393 0.903658 4.697719 0.528502 3.913367 18.063555 2.612286 -0.763540 15.087444 1.235804 -1.886594 -7.748637 2.594448 -4.043128 -0.366569 -1.515886 -13.206911 -5.763687 2.483544 -92.723955 -34.441188 112.966230 -4.840425 6.520071 44.342562 -5.034707 1.275651 -0.017505 11.375390 -7.466760 1.170312 70.718217 -17.612291 -117.023573 26.887691 -10.188511 -11.144429 -5.981099 -42.799347 3.225655 -169.936878 85.591252 -166.097872 -2.197324 -12.859313 -3.091949 0.070452 -0.219839 0.026156 -1.494954 -39.629940 6.062945 72.138443 83.282069 61.742271 -4.742243 -12.825052 9.396196 0.201248 1.658472 0.111473
1.610226 52.195943 35.999467 171.541535 -38.021917 -2.106790 4.574427 21.509185 1.834356 0.546185 2.884352 0.313443 0.920622 4.717122 0.547697 3.902409 18.057032 2.604588 -0.662370 15.160099 1.240457 -1.727858 -7.650672 2.552295 -4.062375 -0.339831 -1.507130 -13.190281 -5.802871 2.468796 -92.584881 -34.506196 112.708370 -5.544541 5.944750 42.791238 -5.007465 1.304217 0.006702 11.353452 -7.453236 1.132866 70.776707 -17.461198 -116.668559 26.944076 -11.090367 -9.732759 -5.989431 -42.808394 3.214759 -170.107243 85.582604 -166.266902 -2.199267 -12.858288 -3.102219 0.070499 -0.225217 0.026298 -1.464362 -39.637501 6.028845 72.202989 83.276278 61.817731 -4.741247 -12.828577 9.405149 0.192603 1.657539 0.107506
1.608546 52.191653 35.999849 171.542458 -38.018365 -2.104653 4.586987 21.524063 1.850016 0.548290 2.885140 0.315415 0.923568 4.723260 0.550786 3.894776 18.049101 2.600890 -0.565440 15.230815 1.245688 -1.572487 -7.564396 2.513228 -4.085568 -0.316634 -1.497608 -13.136943 -5.815440 2.446974 -92.511069 -34.621913 112.494268 -6.294720 5.260698 41.162643 -4.985387 1.336878 0.034710 11.325876 -7.467610 1.089288 70.891447 -17.388363 -116.254800 26.927237 -11.863445 -8.461065 -6.000572 -42.816489 3.210220 -170.252609 85.577668 -166.404550 -2.196816 -12.859521 -3.118867 0.071477 -0.225519 0.026326 -1.433736 -39.646573 6.006944 72.228688 83.274650 61.860646 -4.754268 -12.832873 9.402534 0.199879 1.659988 0.110950
1.608067 52.188335 36.001300 171.545620 -38.015332 -2.108619 4.598045 21.541558 1.869339 0.564699 2.914340 0.332613 0.912205 4.703421 0.540008 3.902618 18.058514 2.610296 -0.489013 15.279765 1.241354 -1.416082 -7.487130 2.474005 -4.127752 -0.317539 -1.496019 -13.077216 -5.832520 2.430577 -92.458523 -34.825743 112.292846 -7.117721 4.462673 39.454341 -4.977199 1.353626 0.055513 11.286260 -7.428757 1.038793 71.102605 -17.459282 -115.873977 26.846718 -12.495679 -7.311593 -6.017699 -42.823042 3.220515 -170.265621 85.574305 -166.418503 -2.188799 -12.854143 -3.126194 0.070907 -0.225742 0.027233 -1.378312 -39.651822 5.985811 72.149721 83.283185 61.816828 -4.793787 -12.844223 9.403423 0.236509 1.674823 0.121233
1.599139 52.182601 36.006329 171.579724 -37.980258 -2.080748 4.560422 21.534043 1.831136 0.565890 2.920043 0.334081 0.929968 4.746765 0.558548 3.912295 18.084791 2.627134 -0.432756 15.271993 1.217115 -1.256866 -7.415429 2.433043 -4.190713 -0.376854 -1.507562 -12.906867 -5.817839 2.436993 -92.566458 -35.181425 112.157598 -8.023161 3.544191 37.688560 -4.982279 1.317793 0.057942 11.242922 -7.383039 0.985965 71.380043 -17.663359 -115.490854 26.709715 -12.990539 -6.229433 -6.017233 -42.873131 3.158892 -170.495101 85.563655 -166.649902 -2.195495 -12.855725 -3.130899 0.074961 -0.225366 0.026554 -1.350630 -39.684486 5.921706 72.210243 83.247086 61.868137 -4.878026 -12.865499 9.414116 0.277670 1.708815 0.132900
1.597880 52.181149 36.009591 171.582650 -37.975295 -2.073633 4.564870 21.552872 1.839166 0.567776 2.926650 0.335595 0.932988 4.756976 0.560962 3.920597 18.100325 2.634997 -0.348211 15.311674 1.211963 -1.096180 -7.343865 2.391520 -4.240827 -0.387019 -1.501788 -12.778581 -5.828169 2.439061 -92.661521 -35.677563 112.014911 -8.994087 2.488417 35.880302 -4.972527 1.329411 0.070387 11.214087 -7.350539 0.937249 71.674402 -17.946405 -115.087885 26.526925 -13.366837 -5.151733 -6.018793 -42.881744 3.148161 -170.634187 85.565038 -166.783234 -2.196255 -12.851263 -3.141570 0.073504 -0.226173 0.026516 -1.330423 -39.685957 5.907853 72.212445 83.227089 61.866168 -4.896865 -12.872801 9.404655 0.277629 1.718351 0.148583
1.597113 52.181305 36.012914 171.581902 -37.976642 -2.064183 4.571281 21.577539 1.846081 0.570328 2.934390 0.337140 0.936936 4.768883 0.563484 3.931868 18.118297 2.643062 -0.261546 15.353099 1.207016 -0.931586 -7.269070 2.349629 -4.293055 -0.393743 -1.496865 -12.632028 -5.834425 2.444675 -92.861107 -36.329784 111.915787 -9.977030 1.282698 34.021954 -4.970303 1.339705 0.081344 11.196447 -7.311172 0.885461 71.956727 -18.250748 -114.686009 26.315222 -13.654361 -4.063476 -6.016130 -42.881914 3.139214 -170.693069 85.567849 -166.838973 -2.194303 -12.848714 -3.149474 0.069743 -0.225627 0.025728 -1.294043 -39.676200 5.895078 72.130940 83.214750 61.787171 -4.943751 -12.884312 9.411478 0.302808 1.736218 0.155503
1.597236 52.182265 36.017124 171.576812 -37.978639 -2.056313 4.577351 21.591065 1.848428 0.575326 2.954207 0.344462 0.934892 4.759574 0.558078 3.937660 18.127885 2.646944 -0.160796 15.427870 1.210573 -0.763259 -7.193859 2.306333 -4.325336 -0.360708 -1.490781 -12.459666 -5.835671 2.460812 -93.202341 -37.123003 111.872937 -10.894148 -0.053012 32.111448 -4.956254 1.384434 0.096751 11.180754 -7.266910 0.827749 72.190209 -18.513147 -114.279915 26.094920 -13.885813 -3.018340 -6.010512 -42.880890 3.134406 -170.787560 85.574216 -166.926716 -2.197436 -12.842090 -3.159405 0.068917 -0.225275 0.026770 -1.261185 -39.666656 5.888441 72.045664 83.205736 61.704268 -4.982190 -12.892260 9.416003 0.319577 1.750883 0.164862
1.598554 52.184200 36.021632 171.565011 -37.986046 -2.051199 4.590579 21.609241 1.856936 0.576671 2.958568 0.346269 0.936730 4.766003 0.558094 3.942853 18.137948 2.650253 -0.065383 15.500355 1.215329 -0.598445 -7.127748 2.260982 -4.348360 -0.319828 -1.486224 -12.247307 -5.829850 2.491276 -93.684234 -38.013717 111.872915 -11.678006 -1.456735 30.204092 -4.941522 1.429086 0.111813 11.156522 -7.216697 0.764850 72.353898 -18.692890 -113.857066 25.871470 -14.085540 -2.075468 -6.004518 -42.873033 3.140074 -170.781850 85.581034 -166.915399 -2.194763 -12.832126 -3.166384 0.067238 -0.224735 0.026787 -1.224146 -39.646075 5.897193 71.860434 83.210163 61.520679 -5.018191 -12.912553 9.396205 0.340829 1.777802 0.202678
1.599026 52.186477 36.026420 171.563091 -37.995530 -2.048196 4.598543 21.641201 1.872073 0.574317 2.951947 0.339856 0.943277 4.795814 0.568152 3.959954 18.215374 2.674673 -0.002858 15.475153 1.189981 -0.447212 -7.081493 2.213930 -4.379306 -0.387192 -1.503603 -11.999743 -5.793812 2.535918 -94.236205 -38.919968 111.875209 -12.295351 -2.830245 28.400122 -4.955978 1.341566 0.097231 11.127529 -7.126191 0.714709 72.459752 -18.794365 -113.409908 25.643505 -14.271006 -1.253407 -6.000788 -42.862335 3.141009 -170.719171 85.587510 -166.849498 -2.189809 -12.823745 -3.171235 0.066215 -0.225306 0.027105 -1.215970 -39.632085 5.901279 71.771791 83.210838 61.423543 -5.027528 -12.906383 9.392835 0.356519 1.776414 0.208857
